<svg
    width="20"
    height="20"
    viewBox="0 0 20 20"
    fill="none"
    stroke="#3399FF"
    strokeWidth="2"
    strokeLinecap="round"
    strokeLinejoin="round"
    xmlns="http://www.w3.org/2000/svg"
  >
<path
      d="M8 10h8M8 14h4m5-8H5a2 2 0 0 0-2 2v10.793a1 1 0 0 0 1.293.293L9 16h8a2 2 0 0 0 2-2V8a2 2 0 0 0-2-2z"
      stroke="#515457"
      strokeWidth="3"
      strokeLinecap="round"
      strokeLinejoin="round"
    />
    <path
      d="M17 16v2a2 2 0 0 1-2 2H7l-4 4V8a2 2 0 0 1 2-2h2"
      stroke="#515457"
      strokeWidth="3"
      strokeLinecap="round"
      strokeLinejoin="round"
      opacity="0.5"
    />
  </svg>