<svg width="64" height="64" viewBox="0 0 64 64" fill="none" xmlns="http://www.w3.org/2000/svg">
  <!-- Background rounded rectangle -->
  <rect x="2" y="2" width="60" height="60" rx="10" fill="none" stroke="#515457" stroke-width="3"/>

  <!-- Brain/AI (left) -->
  <path d="M22 20c0-4 4-7 7-7s7 3 7 7v10c0 4-4 7-7 7s-7-3-7-7V20z" fill="#93C5FD" stroke="#515457" stroke-width="3"/>

  <!-- Lightning bolt (generate spark) -->
  <path d="M31 23l5-2-3 5h4l-6 9 2-6h-3l3-6z" fill="#FACC15" stroke="#CA8A04" stroke-width="1"/>

  <!-- Image (landscape) on right -->
  <rect x="36" y="28" width="18" height="12" rx="2" fill="#DBEAFE" stroke="#515457" stroke-width="2"/>
  <circle cx="41" cy="32" r="2" fill="#3B82F6"/>
  <path d="M36 40l5-5 3 3 4-4 6 6H36z" fill="#93C5FD"/>

  <!-- Text hint -->
  <text x="32" y="58" text-anchor="middle" font-size="12" fill="#515457" font-family="Arial, sans-serif">AI Image</text>
</svg>
